<mxfile host="65bd71144e">
    <diagram id="KEeLaWw5J8zda0JQlrn0" name="Page-1">
        <mxGraphModel dx="2476" dy="779" grid="1" gridSize="10" guides="1" tooltips="1" connect="1" arrows="1" fold="1" page="1" pageScale="1" pageWidth="850" pageHeight="1100" math="0" shadow="0">
            <root>
                <mxCell id="0"/>
                <mxCell id="1" parent="0"/>
                <mxCell id="2" value="" style="strokeWidth=1;shadow=0;dashed=0;align=center;html=1;shape=mxgraph.mockup.containers.browserWindow;rSize=0;strokeColor=#666666;strokeColor2=#008cff;strokeColor3=#c4c4c4;mainText=,;recursiveResize=0;" vertex="1" parent="1">
                    <mxGeometry x="-40" y="310" width="1610" height="5280" as="geometry"/>
                </mxCell>
                <mxCell id="3" value="Page 1" style="strokeWidth=1;shadow=0;dashed=0;align=center;html=1;shape=mxgraph.mockup.containers.anchor;fontSize=17;fontColor=#666666;align=left;whiteSpace=wrap;" vertex="1" parent="2">
                    <mxGeometry x="60" y="12" width="110" height="26" as="geometry"/>
                </mxCell>
                <mxCell id="4" value="https://www.draw.io" style="strokeWidth=1;shadow=0;dashed=0;align=center;html=1;shape=mxgraph.mockup.containers.anchor;rSize=0;fontSize=17;fontColor=#666666;align=left;" vertex="1" parent="2">
                    <mxGeometry x="130" y="60" width="250" height="26" as="geometry"/>
                </mxCell>
                <mxCell id="6" value="&lt;div style=&quot;&quot;&gt;&lt;span style=&quot;background-color: transparent;&quot;&gt;HOME&lt;/span&gt;&lt;span style=&quot;background-color: transparent; white-space: pre;&quot;&gt;&#x9;&lt;/span&gt;&lt;span style=&quot;background-color: transparent; white-space: pre;&quot;&gt;&#x9;&lt;/span&gt;&lt;span style=&quot;background-color: transparent;&quot;&gt;ABOUT&lt;span style=&quot;white-space: pre;&quot;&gt;&#x9;&lt;/span&gt;&lt;span style=&quot;white-space: pre;&quot;&gt;&#x9;&lt;/span&gt;SKILLS&lt;/span&gt;&lt;span style=&quot;background-color: transparent; white-space: pre;&quot;&gt;&#x9;&lt;/span&gt;&lt;span style=&quot;background-color: transparent; white-space: pre;&quot;&gt;&#x9;&lt;/span&gt;&lt;span style=&quot;background-color: transparent;&quot;&gt;PROJECTS&lt;/span&gt;&lt;span style=&quot;background-color: transparent; white-space: pre;&quot;&gt;&#x9;&lt;/span&gt;&lt;span style=&quot;background-color: transparent; white-space: pre;&quot;&gt;&#x9;&lt;/span&gt;&lt;span style=&quot;background-color: transparent;&quot;&gt;CONTACT&lt;span style=&quot;white-space: pre;&quot;&gt;&#x9;&lt;/span&gt;&lt;span style=&quot;white-space: pre;&quot;&gt;&#x9;&lt;/span&gt;&lt;span style=&quot;white-space: pre;&quot;&gt;&#x9;&lt;/span&gt;&lt;span style=&quot;white-space: pre;&quot;&gt;&#x9;&lt;/span&gt;&lt;span style=&quot;white-space: pre;&quot;&gt;&#x9;&lt;/span&gt;&lt;/span&gt;&lt;/div&gt;" style="rounded=0;whiteSpace=wrap;html=1;align=right;" vertex="1" parent="2">
                    <mxGeometry y="110" width="1610" height="70" as="geometry"/>
                </mxCell>
                <mxCell id="7" value="" style="image;html=1;image=img/lib/atlassian/Atlassian_Logo.svg;" vertex="1" parent="2">
                    <mxGeometry x="50" y="122" width="110" height="46" as="geometry"/>
                </mxCell>
                <mxCell id="8" value="" style="ellipse;whiteSpace=wrap;html=1;aspect=fixed;" vertex="1" parent="2">
                    <mxGeometry x="620" y="280" width="350" height="350" as="geometry"/>
                </mxCell>
                <mxCell id="9" value="" style="shape=actor;whiteSpace=wrap;html=1;" vertex="1" parent="2">
                    <mxGeometry x="742.5" y="392.5" width="105" height="125" as="geometry"/>
                </mxCell>
                <mxCell id="10" value="" style="rounded=1;whiteSpace=wrap;html=1;strokeWidth=2;fillWeight=4;hachureGap=8;hachureAngle=45;fillColor=#1ba1e2;sketch=1;" vertex="1" parent="2">
                    <mxGeometry x="536.25" y="670" width="537.5" height="240" as="geometry"/>
                </mxCell>
                <mxCell id="11" value="Get in Touch" style="strokeWidth=1;shadow=0;dashed=0;align=center;html=1;shape=mxgraph.mockup.buttons.button;strokeColor=#666666;fontColor=#ffffff;mainText=;buttonStyle=round;fontSize=17;fontStyle=1;fillColor=#008cff;whiteSpace=wrap;" vertex="1" parent="2">
                    <mxGeometry x="620" y="960" width="150" height="50" as="geometry"/>
                </mxCell>
                <mxCell id="12" value="Resume" style="strokeWidth=1;shadow=0;dashed=0;align=center;html=1;shape=mxgraph.mockup.buttons.button;strokeColor=#666666;fontColor=#ffffff;mainText=;buttonStyle=round;fontSize=17;fontStyle=1;fillColor=#008cff;whiteSpace=wrap;" vertex="1" parent="2">
                    <mxGeometry x="840" y="960" width="150" height="50" as="geometry"/>
                </mxCell>
                <mxCell id="13" value="" style="rounded=0;whiteSpace=wrap;html=1;" vertex="1" parent="2">
                    <mxGeometry y="1060" width="1610" height="1710" as="geometry"/>
                </mxCell>
                <mxCell id="14" value="ABOUT" style="rounded=1;whiteSpace=wrap;html=1;" vertex="1" parent="2">
                    <mxGeometry x="735" y="1070" width="120" height="60" as="geometry"/>
                </mxCell>
                <mxCell id="15" value="" style="endArrow=classic;startArrow=classic;html=1;" edge="1" parent="2" target="16">
                    <mxGeometry width="50" height="50" relative="1" as="geometry">
                        <mxPoint x="960" y="410" as="sourcePoint"/>
                        <mxPoint x="1952" y="300" as="targetPoint"/>
                    </mxGeometry>
                </mxCell>
                <mxCell id="17" value="" style="html=1;verticalLabelPosition=bottom;align=center;labelBackgroundColor=#ffffff;verticalAlign=top;strokeWidth=2;strokeColor=#0080F0;shadow=0;dashed=0;shape=mxgraph.ios7.icons.sun;pointerEvents=1" vertex="1" parent="2">
                    <mxGeometry x="1570" y="130" width="30" height="30" as="geometry"/>
                </mxCell>
                <mxCell id="18" value="" style="shape=actor;whiteSpace=wrap;html=1;" vertex="1" parent="2">
                    <mxGeometry x="350" y="1180" width="285" height="295" as="geometry"/>
                </mxCell>
                <mxCell id="19" value="" style="rounded=1;whiteSpace=wrap;html=1;strokeWidth=2;fillWeight=4;hachureGap=8;hachureAngle=45;fillColor=#1ba1e2;sketch=1;" vertex="1" parent="2">
                    <mxGeometry x="710" y="1198.75" width="570" height="141.25" as="geometry"/>
                </mxCell>
                <mxCell id="20" value="Title" style="text;strokeColor=none;fillColor=none;html=1;fontSize=24;fontStyle=1;verticalAlign=middle;align=center;" vertex="1" parent="2">
                    <mxGeometry x="710" y="1140" width="100" height="40" as="geometry"/>
                </mxCell>
                <mxCell id="21" value="" style="html=1;shadow=0;dashed=0;shape=mxgraph.bootstrap.rrect;rSize=5;strokeColor=none;fillColor=#f6f6f6;whiteSpace=wrap;" vertex="1" parent="2">
                    <mxGeometry x="710" y="1380" width="420" height="15" as="geometry"/>
                </mxCell>
                <mxCell id="22" value="" style="html=1;shadow=0;dashed=0;shape=mxgraph.bootstrap.leftButtonStriped;fillColor=#55BFE0;fontColor=#FFFFFF;whiteSpace=wrap;" vertex="1" parent="21">
                    <mxGeometry width="262.5" height="15" as="geometry"/>
                </mxCell>
                <mxCell id="23" value="" style="html=1;shadow=0;dashed=0;shape=mxgraph.bootstrap.rrect;rSize=5;strokeColor=none;fillColor=#f6f6f6;whiteSpace=wrap;" vertex="1" parent="2">
                    <mxGeometry x="710" y="1410" width="420" height="15" as="geometry"/>
                </mxCell>
                <mxCell id="24" value="" style="html=1;shadow=0;dashed=0;shape=mxgraph.bootstrap.leftButtonStriped;fillColor=#55BFE0;fontColor=#FFFFFF;whiteSpace=wrap;" vertex="1" parent="23">
                    <mxGeometry width="262.5" height="15" as="geometry"/>
                </mxCell>
                <mxCell id="25" value="" style="html=1;shadow=0;dashed=0;shape=mxgraph.bootstrap.rrect;rSize=5;strokeColor=none;fillColor=#f6f6f6;whiteSpace=wrap;" vertex="1" parent="2">
                    <mxGeometry x="710" y="1440" width="420" height="15" as="geometry"/>
                </mxCell>
                <mxCell id="26" value="" style="html=1;shadow=0;dashed=0;shape=mxgraph.bootstrap.leftButtonStriped;fillColor=#55BFE0;fontColor=#FFFFFF;whiteSpace=wrap;" vertex="1" parent="25">
                    <mxGeometry width="262.5" height="15" as="geometry"/>
                </mxCell>
                <mxCell id="27" value="" style="html=1;shadow=0;dashed=0;shape=mxgraph.bootstrap.rrect;rSize=5;strokeColor=none;fillColor=#f6f6f6;whiteSpace=wrap;" vertex="1" parent="2">
                    <mxGeometry x="710" y="1470" width="420" height="15" as="geometry"/>
                </mxCell>
                <mxCell id="28" value="" style="html=1;shadow=0;dashed=0;shape=mxgraph.bootstrap.leftButtonStriped;fillColor=#55BFE0;fontColor=#FFFFFF;whiteSpace=wrap;" vertex="1" parent="27">
                    <mxGeometry width="262.5" height="15" as="geometry"/>
                </mxCell>
                <mxCell id="29" value="" style="endArrow=classic;html=1;" edge="1" parent="2" target="30">
                    <mxGeometry width="50" height="50" relative="1" as="geometry">
                        <mxPoint x="1130" y="1455" as="sourcePoint"/>
                        <mxPoint x="1772" y="1430" as="targetPoint"/>
                    </mxGeometry>
                </mxCell>
                <mxCell id="31" value="EDUCATION" style="rounded=1;whiteSpace=wrap;html=1;" vertex="1" parent="2">
                    <mxGeometry x="745" y="1500" width="120" height="60" as="geometry"/>
                </mxCell>
                <mxCell id="32" value="" style="verticalLabelPosition=bottom;html=1;verticalAlign=top;strokeWidth=2;shape=mxgraph.lean_mapping.timeline2;dx1=0;dy1=1;dx2=30;dy2=0;dx3=160;dy3=1;dx4=230;dy4=0;dx5=310;dy5=1;dy6=0;rotation=90;" vertex="1" parent="2">
                    <mxGeometry x="630" y="1730" width="350" height="40" as="geometry"/>
                </mxCell>
                <mxCell id="33" value="ONLINE ACCREDITIONS" style="rounded=1;whiteSpace=wrap;html=1;" vertex="1" parent="2">
                    <mxGeometry x="745" y="1970" width="120" height="60" as="geometry"/>
                </mxCell>
                <mxCell id="34" value="" style="verticalLabelPosition=bottom;verticalAlign=top;html=1;shadow=0;dashed=0;strokeWidth=1;shape=mxgraph.ios.iIconGrid;gridSize=3,3;" vertex="1" parent="2">
                    <mxGeometry x="415" y="2150" width="780" height="490" as="geometry"/>
                </mxCell>
                <mxCell id="35" value="" style="rounded=0;whiteSpace=wrap;html=1;" vertex="1" parent="2">
                    <mxGeometry y="2770" width="1610" height="760" as="geometry"/>
                </mxCell>
                <mxCell id="36" value="SKILLS" style="rounded=1;whiteSpace=wrap;html=1;" vertex="1" parent="2">
                    <mxGeometry x="720" y="2790" width="120" height="60" as="geometry"/>
                </mxCell>
                <mxCell id="37" value="" style="rounded=1;whiteSpace=wrap;html=1;strokeWidth=2;fillWeight=4;hachureGap=8;hachureAngle=45;fillColor=#1ba1e2;sketch=1;" vertex="1" parent="2">
                    <mxGeometry x="505" y="2900" width="550" height="60" as="geometry"/>
                </mxCell>
                <mxCell id="39" value="" style="html=1;shadow=0;dashed=0;shape=mxgraph.bootstrap.rrect;rSize=5;strokeColor=none;fillColor=#f6f6f6;whiteSpace=wrap;" vertex="1" parent="2">
                    <mxGeometry x="120" y="3050" width="570" height="15" as="geometry"/>
                </mxCell>
                <mxCell id="40" value="" style="html=1;shadow=0;dashed=0;shape=mxgraph.bootstrap.leftButtonStriped;fillColor=#55BFE0;fontColor=#FFFFFF;whiteSpace=wrap;" vertex="1" parent="39">
                    <mxGeometry width="356.25" height="15" as="geometry"/>
                </mxCell>
                <mxCell id="41" value="" style="html=1;shadow=0;dashed=0;shape=mxgraph.bootstrap.rrect;rSize=5;strokeColor=none;fillColor=#f6f6f6;whiteSpace=wrap;" vertex="1" parent="2">
                    <mxGeometry x="120" y="3090" width="570" height="15" as="geometry"/>
                </mxCell>
                <mxCell id="42" value="" style="html=1;shadow=0;dashed=0;shape=mxgraph.bootstrap.leftButtonStriped;fillColor=#55BFE0;fontColor=#FFFFFF;whiteSpace=wrap;" vertex="1" parent="41">
                    <mxGeometry width="356.25" height="15" as="geometry"/>
                </mxCell>
                <mxCell id="44" value="" style="html=1;shadow=0;dashed=0;shape=mxgraph.bootstrap.rrect;rSize=5;strokeColor=none;fillColor=#f6f6f6;whiteSpace=wrap;" vertex="1" parent="2">
                    <mxGeometry x="120" y="3130" width="570" height="15" as="geometry"/>
                </mxCell>
                <mxCell id="45" value="" style="html=1;shadow=0;dashed=0;shape=mxgraph.bootstrap.leftButtonStriped;fillColor=#55BFE0;fontColor=#FFFFFF;whiteSpace=wrap;" vertex="1" parent="44">
                    <mxGeometry width="356.25" height="15" as="geometry"/>
                </mxCell>
                <mxCell id="46" value="" style="html=1;shadow=0;dashed=0;shape=mxgraph.bootstrap.rrect;rSize=5;strokeColor=none;fillColor=#f6f6f6;whiteSpace=wrap;" vertex="1" parent="2">
                    <mxGeometry x="120" y="3170" width="570" height="15" as="geometry"/>
                </mxCell>
                <mxCell id="47" value="" style="html=1;shadow=0;dashed=0;shape=mxgraph.bootstrap.leftButtonStriped;fillColor=#55BFE0;fontColor=#FFFFFF;whiteSpace=wrap;" vertex="1" parent="46">
                    <mxGeometry width="356.25" height="15" as="geometry"/>
                </mxCell>
                <mxCell id="48" value="" style="html=1;shadow=0;dashed=0;shape=mxgraph.bootstrap.rrect;rSize=5;strokeColor=none;fillColor=#f6f6f6;whiteSpace=wrap;" vertex="1" parent="2">
                    <mxGeometry x="820" y="3050" width="570" height="15" as="geometry"/>
                </mxCell>
                <mxCell id="49" value="" style="html=1;shadow=0;dashed=0;shape=mxgraph.bootstrap.leftButtonStriped;fillColor=#55BFE0;fontColor=#FFFFFF;whiteSpace=wrap;" vertex="1" parent="48">
                    <mxGeometry width="356.25" height="15" as="geometry"/>
                </mxCell>
                <mxCell id="50" value="" style="html=1;shadow=0;dashed=0;shape=mxgraph.bootstrap.rrect;rSize=5;strokeColor=none;fillColor=#f6f6f6;whiteSpace=wrap;" vertex="1" parent="2">
                    <mxGeometry x="820" y="3090" width="570" height="15" as="geometry"/>
                </mxCell>
                <mxCell id="51" value="" style="html=1;shadow=0;dashed=0;shape=mxgraph.bootstrap.leftButtonStriped;fillColor=#55BFE0;fontColor=#FFFFFF;whiteSpace=wrap;" vertex="1" parent="50">
                    <mxGeometry width="356.25" height="15" as="geometry"/>
                </mxCell>
                <mxCell id="52" value="" style="html=1;shadow=0;dashed=0;shape=mxgraph.bootstrap.rrect;rSize=5;strokeColor=none;fillColor=#f6f6f6;whiteSpace=wrap;" vertex="1" parent="2">
                    <mxGeometry x="820" y="3130" width="570" height="15" as="geometry"/>
                </mxCell>
                <mxCell id="53" value="" style="html=1;shadow=0;dashed=0;shape=mxgraph.bootstrap.leftButtonStriped;fillColor=#55BFE0;fontColor=#FFFFFF;whiteSpace=wrap;" vertex="1" parent="52">
                    <mxGeometry width="356.25" height="15" as="geometry"/>
                </mxCell>
                <mxCell id="54" value="" style="html=1;shadow=0;dashed=0;shape=mxgraph.bootstrap.rrect;rSize=5;strokeColor=none;fillColor=#f6f6f6;whiteSpace=wrap;" vertex="1" parent="2">
                    <mxGeometry x="820" y="3170" width="570" height="15" as="geometry"/>
                </mxCell>
                <mxCell id="55" value="" style="html=1;shadow=0;dashed=0;shape=mxgraph.bootstrap.leftButtonStriped;fillColor=#55BFE0;fontColor=#FFFFFF;whiteSpace=wrap;" vertex="1" parent="54">
                    <mxGeometry width="356.25" height="15" as="geometry"/>
                </mxCell>
                <mxCell id="57" value="" style="rounded=0;whiteSpace=wrap;html=1;" vertex="1" parent="2">
                    <mxGeometry y="3530" width="1610" height="840" as="geometry"/>
                </mxCell>
                <mxCell id="58" value="PROJECTS" style="rounded=1;whiteSpace=wrap;html=1;" vertex="1" parent="2">
                    <mxGeometry x="735" y="3550" width="120" height="60" as="geometry"/>
                </mxCell>
                <mxCell id="59" value="" style="rounded=1;whiteSpace=wrap;html=1;strokeWidth=2;fillWeight=4;hachureGap=8;hachureAngle=45;fillColor=#1ba1e2;sketch=1;" vertex="1" parent="2">
                    <mxGeometry x="561.25" y="3640" width="467.5" height="60" as="geometry"/>
                </mxCell>
                <mxCell id="60" value="ALL&amp;nbsp;&lt;span style=&quot;white-space: pre;&quot;&gt;&#x9;&lt;/span&gt;&lt;span style=&quot;white-space: pre;&quot;&gt;&#x9;&lt;/span&gt;REACT&lt;span style=&quot;white-space: pre;&quot;&gt;&#x9;&lt;/span&gt;JQUERY&lt;span style=&quot;white-space: pre;&quot;&gt;&#x9;&lt;span style=&quot;white-space: pre;&quot;&gt;&#x9;&lt;/span&gt;JAVASCRIPT&lt;span style=&quot;white-space: pre;&quot;&gt;&#x9;&lt;/span&gt;&lt;span style=&quot;white-space: pre;&quot;&gt;&#x9;&lt;/span&gt;PHP&lt;span style=&quot;white-space: pre;&quot;&gt;&#x9;&lt;/span&gt;&lt;span style=&quot;white-space: pre;&quot;&gt;&#x9;&lt;/span&gt;GROUP ETC.&lt;/span&gt;" style="rounded=1;whiteSpace=wrap;html=1;" vertex="1" parent="2">
                    <mxGeometry x="582.5" y="3730" width="446.25" height="60" as="geometry"/>
                </mxCell>
                <mxCell id="62" value="" style="endArrow=classic;html=1;" edge="1" parent="2" target="63">
                    <mxGeometry width="50" height="50" relative="1" as="geometry">
                        <mxPoint x="1028.75" y="3770" as="sourcePoint"/>
                        <mxPoint x="1872" y="3750" as="targetPoint"/>
                    </mxGeometry>
                </mxCell>
                <mxCell id="64" value="" style="verticalLabelPosition=bottom;verticalAlign=top;html=1;shadow=0;dashed=0;strokeWidth=1;shape=mxgraph.ios.iIconGrid;gridSize=3,3;" vertex="1" parent="2">
                    <mxGeometry x="400" y="3820" width="780" height="490" as="geometry"/>
                </mxCell>
                <mxCell id="66" value="" style="rounded=0;whiteSpace=wrap;html=1;" vertex="1" parent="2">
                    <mxGeometry y="4370" width="1610" height="820" as="geometry"/>
                </mxCell>
                <mxCell id="65" value="CONTACT" style="rounded=1;whiteSpace=wrap;html=1;" vertex="1" parent="2">
                    <mxGeometry x="730" y="4390" width="120" height="60" as="geometry"/>
                </mxCell>
                <mxCell id="67" value="Title" style="text;strokeColor=none;fillColor=none;html=1;fontSize=24;fontStyle=1;verticalAlign=middle;align=center;" vertex="1" parent="2">
                    <mxGeometry x="260" y="4500" width="100" height="40" as="geometry"/>
                </mxCell>
                <mxCell id="68" value="" style="rounded=1;whiteSpace=wrap;html=1;strokeWidth=2;fillWeight=4;hachureGap=8;hachureAngle=45;fillColor=#1ba1e2;sketch=1;" vertex="1" parent="2">
                    <mxGeometry x="280" y="4560" width="340" height="150" as="geometry"/>
                </mxCell>
                <mxCell id="69" value="" style="verticalLabelPosition=bottom;verticalAlign=top;html=1;shadow=0;dashed=0;strokeWidth=1;shape=mxgraph.ios.iBgMap;strokeColor=#18211b;strokeColor2=#008cff;fillColor2=#96D1FF;" vertex="1" parent="2">
                    <mxGeometry x="280" y="4740" width="350" height="170" as="geometry"/>
                </mxCell>
                <mxCell id="88" value="FULL NAME&lt;span style=&quot;font-family: monospace; font-size: 0px; text-wrap-mode: nowrap;&quot;&gt;%3CmxGraphModel%3E%3Croot%3E%3CmxCell%20id%3D%220%22%2F%3E%3CmxCell%20id%3D%221%22%20parent%3D%220%22%2F%3E%3CmxCell%20id%3D%222%22%20value%3D%22%22%20style%3D%22verticalLabelPosition%3Dbottom%3BverticalAlign%3Dtop%3Bhtml%3D1%3Bshadow%3D0%3Bdashed%3D0%3BstrokeWidth%3D1%3Bshape%3Dmxgraph.ios.iIconGrid%3BgridSize%3D3%2C3%3B%22%20vertex%3D%221%22%20parent%3D%221%22%3E%3CmxGeometry%20x%3D%22375%22%20y%3D%222460%22%20width%3D%22780%22%20height%3D%22490%22%20as%3D%22geometry%22%2F%3E%3C%2FmxCell%3E%3C%2Froot%3E%3C%2FmxGraphModel%3E&lt;/span&gt;" style="rounded=1;whiteSpace=wrap;html=1;align=left;" vertex="1" parent="2">
                    <mxGeometry x="908.75" y="4570" width="361.25" height="30" as="geometry"/>
                </mxCell>
                <mxCell id="89" value="EMAIL ADDRESS" style="rounded=1;whiteSpace=wrap;html=1;align=left;" vertex="1" parent="2">
                    <mxGeometry x="908.75" y="4620" width="361.25" height="30" as="geometry"/>
                </mxCell>
                <mxCell id="90" value="TYPE IN MESSAGE........" style="rounded=1;whiteSpace=wrap;html=1;" vertex="1" parent="2">
                    <mxGeometry x="908.75" y="4680" width="361.25" height="240" as="geometry"/>
                </mxCell>
                <mxCell id="91" value="SUBMIT" style="strokeWidth=1;shadow=0;dashed=0;align=center;html=1;shape=mxgraph.mockup.buttons.button;strokeColor=#666666;fontColor=#ffffff;mainText=;buttonStyle=round;fontSize=17;fontStyle=1;fillColor=#008cff;whiteSpace=wrap;" vertex="1" parent="2">
                    <mxGeometry x="908.75" y="5040" width="150" height="50" as="geometry"/>
                </mxCell>
                <mxCell id="92" value="fG2yQ23" style="strokeWidth=1;shadow=0;dashed=0;align=center;html=1;shape=mxgraph.mockup.text.captcha;fontColor=#666666;fontSize=25;strokeColor=#666666;mainText=" vertex="1" parent="2">
                    <mxGeometry x="908.75" y="4960" width="201.25" height="50" as="geometry"/>
                </mxCell>
                <mxCell id="93" value="COPY RIGHT" style="rounded=0;whiteSpace=wrap;html=1;align=left;" vertex="1" parent="2">
                    <mxGeometry y="5190" width="1610" height="90" as="geometry"/>
                </mxCell>
                <mxCell id="94" value="" style="verticalLabelPosition=bottom;html=1;verticalAlign=top;align=center;strokeColor=none;fillColor=#00BEF2;shape=mxgraph.azure.github_code;pointerEvents=1;" vertex="1" parent="2">
                    <mxGeometry x="1350" y="5210" width="50" height="50" as="geometry"/>
                </mxCell>
                <mxCell id="95" value="" style="dashed=0;outlineConnect=0;html=1;align=center;labelPosition=center;verticalLabelPosition=bottom;verticalAlign=top;shape=mxgraph.webicons.linkedin;fillColor=#0095DB;gradientColor=#006391" vertex="1" parent="2">
                    <mxGeometry x="1440" y="5214.4" width="50" height="41.2" as="geometry"/>
                </mxCell>
                <mxCell id="96" value="" style="shape=mxgraph.mockup.markup.redX;fillColor=#ff0000;html=1;shadow=0;whiteSpace=wrap;strokeColor=none;" vertex="1" parent="2">
                    <mxGeometry x="1530" y="5215" width="50" height="40" as="geometry"/>
                </mxCell>
                <mxCell id="16" value="Create pulse effect where icon is glowing and going up and down at the same time" style="whiteSpace=wrap;html=1;aspect=fixed;" vertex="1" parent="1">
                    <mxGeometry x="1872" y="280" width="148" height="148" as="geometry"/>
                </mxCell>
                <mxCell id="30" value="Showcase top kills" style="whiteSpace=wrap;html=1;aspect=fixed;" vertex="1" parent="1">
                    <mxGeometry x="1692" y="1410" width="268" height="268" as="geometry"/>
                </mxCell>
                <mxCell id="63" value="Create a cirucular menu that lets the user see the specific type of project that is connected to that link" style="whiteSpace=wrap;html=1;aspect=fixed;" vertex="1" parent="1">
                    <mxGeometry x="1792" y="4020" width="318" height="318" as="geometry"/>
                </mxCell>
            </root>
        </mxGraphModel>
    </diagram>
</mxfile>